<svg xmlns="http://www.w3.org/2000/svg" width="106" height="549" viewBox="0 0 106 549">
    <path fill="#FFF" fill-opacity=".15" fill-rule="evenodd" d="M90.084 524.943c-7.474 0-13.341 6.922-11.626 14.691 1.216 5.507 6.37 9.254 12.01 9.254h24.704c6.623 0 11.965-5.386 11.965-11.973 0-6.595-5.342-11.972-11.965-11.972H90.084zm-32.895-66.309c-7.471 0-13.352 6.923-11.633 14.692 1.218 5.507 6.375 9.253 12.016 9.253h57.633c6.623 0 11.964-5.378 11.964-11.972 0-6.595-5.341-11.973-11.964-11.973H57.19zm-45.02-64.466c-7.474 0-13.344 6.926-11.627 14.693 1.217 5.506 6.372 9.251 12.01 9.251H139.06c6.624 0 11.963-5.38 11.963-11.97 0-6.595-5.339-11.974-11.963-11.974H12.17zm45.023-66.309c-7.473 0-13.355 6.931-11.63 14.698 1.223 5.505 6.38 9.247 12.02 9.247h57.62c6.622 0 11.964-5.38 11.964-11.974 0-6.591-5.342-11.97-11.964-11.97h-58.01zm32.852-66.309c-7.522 0-13.422 6.94-11.647 14.721 1.253 5.493 6.4 9.224 12.033 9.224h24.782c6.644 0 12.003-5.395 12.003-12.01 0-6.578-5.359-11.935-12.003-11.935H90.044zM57.1 197.084c-7.467 0-13.35 6.844-11.69 14.614 1.187 5.547 6.374 9.33 12.046 9.33h57.838c6.644 0 12.002-5.373 12.002-11.973 0-6.615-5.358-11.97-12.002-11.97H57.1zm-45.134-66.309c-7.471 0-13.346 6.852-11.682 14.62 1.188 5.544 6.372 9.325 12.042 9.325h126.937c6.645 0 12.001-5.358 12.001-11.974 0-6.612-5.356-11.97-12.001-11.97H11.966zm45.316-66.308c-6.955 0-12.528 5.977-11.84 13.26.582 6.151 6.068 10.684 12.246 10.684h57.425c6.601 0 11.926-5.324 11.926-11.898 0-6.721-5.325-12.046-11.926-12.046H57.282zM90.053 0c-7.5 0-13.387 6.929-11.649 14.708 1.228 5.496 6.369 9.237 12 9.237h24.799c6.639 0 11.994-5.37 11.994-11.981C127.197 5.37 121.842 0 115.203 0h-25.15z"/>
</svg>
