<svg width="128" height="68" viewBox="0 0 377 271" fill="none" xmlns="http://www.w3.org/2000/svg">
<path d="M19.466 58.3479C19.466 56.2875 18.6292 54.3115 17.1398 52.8546C15.6503 51.3977 13.6302 50.5792 11.5238 50.5792C9.41736 50.5792 7.39722 51.3977 5.90777 52.8546C4.41831 54.3115 3.58154 56.2875 3.58154 58.3479V74.6567C3.58154 76.7171 4.41831 78.6931 5.90777 80.1501C7.39722 81.607 9.41736 82.4255 11.5238 82.4255C13.6302 82.4255 15.6503 81.607 17.1398 80.1501C18.6292 78.6931 19.466 76.7171 19.466 74.6567V58.3479Z" fill="white"/>
<path d="M63.0638 37.411C63.0638 35.3506 62.2271 33.3746 60.7376 31.9177C59.2482 30.4608 57.228 29.6423 55.1216 29.6423C53.0152 29.6423 50.9951 30.4608 49.5056 31.9177C48.0162 33.3746 47.1794 35.3506 47.1794 37.411V75.0976C47.1794 77.158 48.0162 79.134 49.5056 80.591C50.9951 82.0479 53.0152 82.8664 55.1216 82.8664C57.228 82.8664 59.2482 82.0479 60.7376 80.591C62.2271 79.134 63.0638 77.158 63.0638 75.0976V37.411Z" fill="white"/>
<path d="M106.774 7.76873C106.774 5.70833 105.937 3.73233 104.448 2.27541C102.958 0.818489 100.938 0 98.8317 0C96.7253 0 94.7052 0.818489 93.2157 2.27541C91.7263 3.73233 90.8895 5.70833 90.8895 7.76873V90.1944C90.8895 92.2548 91.7263 94.2308 93.2157 95.6877C94.7052 97.1446 96.7253 97.9631 98.8317 97.9631C100.938 97.9631 102.958 97.1446 104.448 95.6877C105.937 94.2308 106.774 92.2548 106.774 90.1944V7.76873Z" fill="white"/>
<path d="M150.034 37.411C150.034 35.3506 149.197 33.3746 147.708 31.9177C146.218 30.4608 144.198 29.6423 142.092 29.6423C139.986 29.6423 137.965 30.4608 136.476 31.9177C134.986 33.3746 134.15 35.3506 134.15 37.411V75.0976C134.15 77.158 134.986 79.134 136.476 80.591C137.965 82.0479 139.986 82.8664 142.092 82.8664C144.198 82.8664 146.218 82.0479 147.708 80.591C149.197 79.134 150.034 77.158 150.034 75.0976V37.411Z" fill="white"/>
<path d="M193.97 58.3479C193.97 56.2875 193.133 54.3115 191.643 52.8546C190.154 51.3977 188.134 50.5792 186.027 50.5792C183.921 50.5792 181.901 51.3977 180.411 52.8546C178.922 54.3115 178.085 56.2875 178.085 58.3479V74.6567C177.996 76.7171 178.746 78.728 180.173 80.2469C181.599 81.7658 183.583 82.6684 185.689 82.756C187.796 82.8437 189.852 82.1093 191.404 80.7144C192.957 79.3195 193.88 77.3783 193.97 75.3179V58.3479Z" fill="white"/>
<path d="M237.568 37.4111C237.612 36.3909 237.45 35.3721 237.092 34.413C236.734 33.4538 236.186 32.573 235.48 31.821C234.774 31.0689 233.924 30.4602 232.977 30.0297C232.03 29.5991 231.006 29.3552 229.963 29.3118C227.857 29.2241 225.801 29.9585 224.248 31.3534C222.695 32.7484 221.773 34.6895 221.683 36.7499V75.0977C221.639 76.1179 221.8 77.1367 222.158 78.0958C222.516 79.055 223.064 79.9357 223.77 80.6878C224.476 81.4399 225.327 82.0486 226.274 82.4791C227.22 82.9097 228.244 83.1536 229.287 83.197C230.33 83.2404 231.372 83.0825 232.352 82.7322C233.333 82.3818 234.233 81.8461 235.002 81.1554C236.555 79.7604 237.478 77.8193 237.568 75.7589V37.4111Z" fill="white"/>
<path d="M281.278 7.76873C281.278 5.70833 280.441 3.73233 278.951 2.27541C277.462 0.818489 275.442 0 273.335 0C271.229 0 269.209 0.818489 267.719 2.27541C266.23 3.73233 265.393 5.70833 265.393 7.76873V90.1944C265.349 91.2146 265.51 92.2333 265.868 93.1925C266.227 94.1517 266.774 95.0324 267.48 95.7845C268.187 96.5366 269.037 97.1453 269.984 97.5758C270.93 98.0063 271.954 98.2503 272.997 98.2937C274.04 98.3371 275.082 98.1791 276.063 97.8288C277.043 97.4785 277.944 96.9427 278.712 96.252C279.481 95.5613 280.104 94.7293 280.544 93.8033C280.984 92.8774 281.233 91.8758 281.278 90.8556V7.76873Z" fill="white"/>
<path d="M324.875 37.4111C324.644 35.51 323.707 33.7582 322.244 32.4871C320.78 31.2161 318.891 30.5141 316.933 30.5141C314.976 30.5141 313.087 31.2161 311.623 32.4871C310.159 33.7582 309.223 35.51 308.991 37.4111V75.0976C309.223 76.9987 310.159 78.7505 311.623 80.0216C313.087 81.2926 314.976 81.9946 316.933 81.9946C318.891 81.9946 320.78 81.2926 322.244 80.0216C323.707 78.7505 324.644 76.9987 324.875 75.0976V37.4111Z" fill="white"/>
<path d="M368.473 58.348C368.243 56.475 367.319 54.7495 365.877 53.4977C364.434 52.2459 362.572 51.5547 360.644 51.5547C358.715 51.5547 356.853 52.2459 355.411 53.4977C353.968 54.7495 353.044 56.475 352.814 58.348V74.6568C352.814 76.7172 353.651 78.6932 355.14 80.1501C356.63 81.607 358.65 82.4255 360.756 82.4255C362.863 82.4255 364.883 81.607 366.372 80.1501C367.862 78.6932 368.699 76.7172 368.699 74.6568L368.473 58.348Z" fill="white"/>
<path d="M124.837 184.376H108.925V121.189H124.902L124.837 184.376Z" fill="white"/>
<path d="M253.565 139.298C249.444 137.059 244.823 135.894 240.132 135.911C237.853 135.785 235.573 136.13 233.435 136.926C231.296 137.721 229.345 138.95 227.704 140.534C226.063 142.118 224.768 144.023 223.899 146.131C223.03 148.239 222.606 150.503 222.655 152.782C222.606 155.061 223.03 157.326 223.899 159.434C224.768 161.541 226.063 163.447 227.704 165.031C229.345 166.615 231.296 167.844 233.435 168.639C235.573 169.434 237.853 169.78 240.132 169.654C244.811 169.699 249.428 168.58 253.565 166.397V183.333C248.85 184.769 243.952 185.515 239.023 185.548C234.635 185.753 230.251 185.059 226.142 183.509C222.032 181.959 218.283 179.586 215.125 176.535C211.967 173.485 209.467 169.821 207.779 165.77C206.091 161.719 205.25 157.366 205.308 152.978C205.25 148.59 206.091 144.237 207.779 140.186C209.467 136.135 211.967 132.471 215.125 129.42C218.283 126.37 222.032 123.997 226.142 122.447C230.251 120.897 234.635 120.203 239.023 120.407C243.958 120.427 248.862 121.196 253.565 122.687V139.298Z" fill="white"/>
<path d="M86.9486 139.298C82.83 137.051 78.2077 135.886 73.515 135.911C71.221 135.748 68.9181 136.063 66.753 136.838C64.5878 137.613 62.6079 138.829 60.9393 140.41C59.2707 141.991 57.95 143.902 57.0613 146.021C56.1726 148.14 55.7353 150.42 55.7773 152.717C55.7289 154.996 56.1524 157.261 57.0213 159.368C57.8902 161.476 59.1858 163.382 60.8267 164.966C62.4677 166.55 64.4186 167.778 66.5571 168.574C68.6956 169.369 70.9756 169.715 73.2541 169.589C77.9943 169.693 82.6836 168.595 86.8834 166.397V183.398C82.1695 184.838 77.2706 185.585 72.3412 185.613C67.9584 185.809 63.5818 185.108 59.4797 183.554C55.3777 182 51.6366 179.625 48.4859 176.576C45.3353 173.526 42.8414 169.866 41.1573 165.819C39.4731 161.772 38.6341 157.425 38.6917 153.043C38.6341 148.661 39.4731 144.313 41.1573 140.267C42.8414 136.22 45.3353 132.56 48.4859 129.51C51.6366 126.461 55.3777 124.086 59.4797 122.532C63.5818 120.978 67.9584 120.277 72.3412 120.473C77.2765 120.489 82.1803 121.258 86.8834 122.752L86.9486 139.298Z" fill="white"/>
<path d="M303.583 136.171C300.294 136.146 297.072 137.095 294.323 138.899C291.574 140.702 289.422 143.28 288.14 146.305C286.858 149.33 286.502 152.668 287.119 155.895C287.735 159.122 289.295 162.094 291.603 164.435C293.91 166.776 296.86 168.381 300.081 169.048C303.301 169.714 306.647 169.411 309.696 168.178C312.744 166.944 315.358 164.836 317.207 162.119C319.055 159.402 320.056 156.198 320.082 152.913C320.151 148.587 318.502 144.41 315.496 141.297C312.489 138.184 308.369 136.387 304.039 136.302H303.583M337.102 152.717C337.102 161.563 333.584 170.046 327.323 176.301C321.061 182.555 312.569 186.069 303.713 186.069C294.858 186.069 286.366 182.555 280.104 176.301C273.843 170.046 270.325 161.563 270.325 152.717C270.325 143.872 273.843 135.388 280.104 129.134C286.366 122.879 294.858 119.365 303.713 119.365C312.569 119.365 321.061 122.879 327.323 129.134C333.584 135.388 337.102 143.872 337.102 152.717Z" fill="white"/>
<path d="M185.354 135.52C181.366 134.498 177.275 133.93 173.159 133.826C166.638 133.826 163.312 135.976 163.312 138.972C163.312 141.969 168.007 144.184 170.616 144.965L174.985 146.333C179.156 147.221 182.908 149.483 185.639 152.754C188.371 156.026 189.923 160.119 190.049 164.377C190.049 180.272 176.093 185.548 163.964 185.548C158.184 185.485 152.421 184.896 146.748 183.789V169.198C151.649 170.618 156.711 171.406 161.812 171.543C169.768 171.543 173.42 169.198 173.42 165.68C173.42 162.163 170.29 160.599 166.312 159.166L162.921 158.059C154.052 155.258 146.618 150.046 146.618 139.559C146.618 127.768 155.487 120.017 170.159 120.017C175.415 120.089 180.645 120.766 185.745 122.036L185.354 135.52Z" fill="white"/>
<path d="M48.6094 210.016V216.828C47.7135 215.859 46.8698 215.156 46.0781 214.719C45.1927 214.292 44.276 214.078 43.3281 214.078C41.5469 214.078 40.0938 214.688 38.9688 215.906C38.5833 216.344 38.2708 216.802 38.0312 217.281C37.7917 217.75 37.6094 218.286 37.4844 218.891C37.3698 219.484 37.3125 220.089 37.3125 220.703C37.3125 222.536 37.875 224.062 39 225.281C40.1354 226.479 41.5781 227.078 43.3281 227.078C44.2656 227.078 45.1823 226.854 46.0781 226.406C46.8698 226 47.7135 225.302 48.6094 224.312V231.141C47.4531 231.682 46.4688 232.042 45.6562 232.219C44.6458 232.458 43.6562 232.578 42.6875 232.578C41.4583 232.578 40.3021 232.427 39.2188 232.125C38.1354 231.833 37.1667 231.385 36.3125 230.781C34.6042 229.615 33.3021 228.177 32.4062 226.469C31.5104 224.698 31.0625 222.734 31.0625 220.578C31.0625 218.849 31.3542 217.26 31.9375 215.812C32.1979 215.115 32.526 214.458 32.9219 213.844C33.3281 213.219 33.849 212.573 34.4844 211.906C35.5781 210.781 36.8073 209.948 38.1719 209.406C39.526 208.854 41.0312 208.578 42.6875 208.578C43.6354 208.578 44.625 208.693 45.6562 208.922C46.6771 209.193 47.6615 209.557 48.6094 210.016ZM58.1719 223.453H64.375L62.0469 215.906C61.9948 215.771 61.8958 215.396 61.75 214.781C61.5729 214.062 61.4115 213.411 61.2656 212.828C61.1198 213.359 60.9948 213.896 60.8906 214.438C60.724 214.958 60.5833 215.448 60.4688 215.906L58.1719 223.453ZM49.4375 232L57.3281 209.125H65.1406L73.0469 232H66.8438L65.6875 227.906H56.8281L55.6406 232H49.4375ZM78.5469 232V214.531H73.4219V209.125H89.9062V214.531H84.7812V232H78.5469ZM99.0156 223.453H105.219L102.891 215.906C102.839 215.771 102.74 215.396 102.594 214.781C102.417 214.062 102.255 213.411 102.109 212.828C101.964 213.359 101.839 213.896 101.734 214.438C101.568 214.958 101.427 215.448 101.312 215.906L99.0156 223.453ZM90.2812 232L98.1719 209.125H105.984L113.891 232H107.688L106.531 227.906H97.6719L96.4844 232H90.2812ZM116.094 232V209.125H122.328V226.656H130.078V232H116.094ZM137.188 232V221.562L129.188 209.125H136.344L139.422 215.016C139.453 215.047 139.484 215.109 139.516 215.203C139.839 215.797 140.062 216.38 140.188 216.953C140.281 216.453 140.505 215.891 140.859 215.266C140.943 215.099 140.984 215.016 140.984 215.016L144.031 209.125H151.203L143.203 221.562V232H137.188ZM153.266 224.609C154.224 225.672 155.141 226.458 156.016 226.969C156.932 227.49 157.828 227.75 158.703 227.75C159.526 227.75 160.208 227.526 160.75 227.078C161.292 226.63 161.562 226.062 161.562 225.375C161.562 224.625 161.339 224.036 160.891 223.609C160.411 223.203 159.354 222.781 157.719 222.344C155.49 221.74 153.911 220.958 152.984 220C152.047 219.021 151.578 217.688 151.578 216C151.578 213.812 152.312 212.031 153.781 210.656C155.229 209.271 157.125 208.578 159.469 208.578C160.792 208.578 161.99 208.75 163.062 209.094C164.188 209.438 165.255 209.948 166.266 210.625L164.312 215.109C163.625 214.516 162.896 214.057 162.125 213.734C161.375 213.432 160.641 213.281 159.922 213.281C159.193 213.281 158.583 213.464 158.094 213.828C157.625 214.172 157.391 214.63 157.391 215.203C157.391 215.755 157.594 216.214 158 216.578C158.427 216.922 159.229 217.25 160.406 217.562C160.448 217.573 160.484 217.583 160.516 217.594C160.547 217.594 160.594 217.604 160.656 217.625C163.198 218.302 164.875 219.062 165.688 219.906C166.219 220.438 166.635 221.109 166.938 221.922C167.208 222.693 167.344 223.568 167.344 224.547C167.344 226.964 166.547 228.917 164.953 230.406C163.349 231.875 161.224 232.609 158.578 232.609C156.953 232.609 155.5 232.344 154.219 231.812C152.948 231.281 151.693 230.427 150.453 229.25L153.266 224.609ZM174.141 232V214.531H169.016V209.125H185.5V214.531H180.375V232H174.141ZM199.609 224.609C200.568 225.672 201.484 226.458 202.359 226.969C203.276 227.49 204.172 227.75 205.047 227.75C205.87 227.75 206.552 227.526 207.094 227.078C207.635 226.63 207.906 226.062 207.906 225.375C207.906 224.625 207.682 224.036 207.234 223.609C206.755 223.203 205.698 222.781 204.062 222.344C201.833 221.74 200.255 220.958 199.328 220C198.391 219.021 197.922 217.688 197.922 216C197.922 213.812 198.656 212.031 200.125 210.656C201.573 209.271 203.469 208.578 205.812 208.578C207.135 208.578 208.333 208.75 209.406 209.094C210.531 209.438 211.599 209.948 212.609 210.625L210.656 215.109C209.969 214.516 209.24 214.057 208.469 213.734C207.719 213.432 206.984 213.281 206.266 213.281C205.536 213.281 204.927 213.464 204.438 213.828C203.969 214.172 203.734 214.63 203.734 215.203C203.734 215.755 203.938 216.214 204.344 216.578C204.771 216.922 205.573 217.25 206.75 217.562C206.792 217.573 206.828 217.583 206.859 217.594C206.891 217.594 206.938 217.604 207 217.625C209.542 218.302 211.219 219.062 212.031 219.906C212.562 220.438 212.979 221.109 213.281 221.922C213.552 222.693 213.688 223.568 213.688 224.547C213.688 226.964 212.891 228.917 211.297 230.406C209.693 231.875 207.568 232.609 204.922 232.609C203.297 232.609 201.844 232.344 200.562 231.812C199.292 231.281 198.036 230.427 196.797 229.25L199.609 224.609ZM217.188 232V209.125H221.953C225.557 209.125 228.073 209.292 229.5 209.625C230.979 209.958 232.271 210.516 233.375 211.297C234.833 212.297 235.932 213.589 236.672 215.172C237.422 216.766 237.797 218.568 237.797 220.578C237.797 222.589 237.422 224.391 236.672 225.984C235.932 227.547 234.833 228.839 233.375 229.859C232.229 230.641 230.969 231.182 229.594 231.484C228.219 231.828 226.021 232 223 232H221.953H217.188ZM223.359 226.875H224.406C226.865 226.875 228.651 226.365 229.766 225.344C230.891 224.344 231.453 222.755 231.453 220.578C231.453 218.411 230.891 216.812 229.766 215.781C228.641 214.75 226.854 214.234 224.406 214.234H223.359V226.875ZM243.25 220.609H261.969V224.281H243.25V220.609ZM283.953 209.125L286.828 220C286.953 220.438 287.083 220.948 287.219 221.531C287.26 221.74 287.318 222.042 287.391 222.438C287.464 222.823 287.521 223.13 287.562 223.359C287.708 222.682 287.839 222.01 287.953 221.344C288.016 221.021 288.125 220.573 288.281 220L290.969 209.125H297.266L290.797 232H285.016L282.188 222.234C281.99 221.505 281.823 220.833 281.688 220.219C281.677 220.156 281.646 220.031 281.594 219.844C281.542 219.656 281.484 219.432 281.422 219.172C281.401 219.245 281.328 219.552 281.203 220.094C281.016 220.927 280.833 221.641 280.656 222.234L277.875 232H272.078L265.625 209.125H271.922L274.547 220.062C274.63 220.427 274.755 220.995 274.922 221.766C275.089 222.578 275.198 223.151 275.25 223.484C275.385 222.839 275.49 222.38 275.562 222.109C275.75 221.255 275.911 220.573 276.047 220.062L278.922 209.125H283.953ZM305.484 223.453H311.688L309.359 215.906C309.307 215.771 309.208 215.396 309.062 214.781C308.885 214.062 308.724 213.411 308.578 212.828C308.432 213.359 308.307 213.896 308.203 214.438C308.036 214.958 307.896 215.448 307.781 215.906L305.484 223.453ZM296.75 232L304.641 209.125H312.453L320.359 232H314.156L313 227.906H304.141L302.953 232H296.75ZM322.562 232V209.125H328.578L337.219 220.891C337.438 221.214 337.714 221.698 338.047 222.344C338.474 223.177 338.891 224.036 339.297 224.922C339.141 223.724 339.052 222.885 339.031 222.406C338.969 221.656 338.938 220.995 338.938 220.422V209.125H344.922V232H338.938L330.297 220.188C330.172 220.021 329.896 219.531 329.469 218.719C329.094 218.052 328.677 217.208 328.219 216.188C328.323 217 328.422 217.844 328.516 218.719C328.557 219.698 328.578 220.359 328.578 220.703V232H322.562ZM47.2188 242.016V248.828C46.3229 247.859 45.4792 247.156 44.6875 246.719C43.8021 246.292 42.8854 246.078 41.9375 246.078C40.1562 246.078 38.7031 246.688 37.5781 247.906C37.1927 248.344 36.8802 248.802 36.6406 249.281C36.401 249.75 36.2188 250.286 36.0938 250.891C35.9792 251.484 35.9219 252.089 35.9219 252.703C35.9219 254.536 36.4844 256.062 37.6094 257.281C38.7448 258.479 40.1875 259.078 41.9375 259.078C42.875 259.078 43.7917 258.854 44.6875 258.406C45.4792 258 46.3229 257.302 47.2188 256.312V263.141C46.0625 263.682 45.0781 264.042 44.2656 264.219C43.2552 264.458 42.2656 264.578 41.2969 264.578C40.0677 264.578 38.9115 264.427 37.8281 264.125C36.7448 263.833 35.776 263.385 34.9219 262.781C33.2135 261.615 31.9115 260.177 31.0156 258.469C30.1198 256.698 29.6719 254.734 29.6719 252.578C29.6719 250.849 29.9635 249.26 30.5469 247.812C30.8073 247.115 31.1354 246.458 31.5312 245.844C31.9375 245.219 32.4583 244.573 33.0938 243.906C34.1875 242.781 35.4167 241.948 36.7812 241.406C38.1354 240.854 39.6406 240.578 41.2969 240.578C42.2448 240.578 43.2344 240.693 44.2656 240.922C45.2865 241.193 46.2708 241.557 47.2188 242.016ZM74.2188 252.609C74.2188 254.266 73.9219 255.812 73.3281 257.25C72.7344 258.656 71.849 259.938 70.6719 261.094C69.5052 262.219 68.1719 263.083 66.6719 263.688C65.099 264.302 63.5417 264.609 62 264.609C60.4375 264.609 58.8802 264.302 57.3281 263.688C55.7969 263.073 54.474 262.208 53.3594 261.094C52.2344 260.021 51.349 258.729 50.7031 257.219C50.0781 255.74 49.7656 254.203 49.7656 252.609C49.7656 251.016 50.0781 249.479 50.7031 248C51.349 246.49 52.2344 245.198 53.3594 244.125C54.5052 242.979 55.8281 242.104 57.3281 241.5C58.7865 240.906 60.3438 240.609 62 240.609C63.6562 240.609 65.224 240.911 66.7031 241.516C68.1823 242.109 69.5 242.979 70.6562 244.125C71.8229 245.271 72.7135 246.562 73.3281 248C73.9219 249.438 74.2188 250.974 74.2188 252.609ZM62 259.328C63.7188 259.328 65.1562 258.688 66.3125 257.406C66.8854 256.771 67.3073 256.057 67.5781 255.266C67.849 254.474 67.9844 253.589 67.9844 252.609C67.9844 250.703 67.4167 249.104 66.2812 247.812C65.125 246.531 63.6979 245.891 62 245.891C60.2604 245.891 58.8281 246.531 57.7031 247.812C56.5781 249.094 56.0156 250.693 56.0156 252.609C56.0156 254.599 56.5677 256.208 57.6719 257.438C58.8073 258.698 60.25 259.328 62 259.328ZM78.1406 264V241.125H84.1562L92.7969 252.891C93.0156 253.214 93.2917 253.698 93.625 254.344C94.0521 255.177 94.4688 256.036 94.875 256.922C94.7188 255.724 94.6302 254.885 94.6094 254.406C94.5469 253.656 94.5156 252.995 94.5156 252.422V241.125H100.5V264H94.5156L85.875 252.188C85.75 252.021 85.474 251.531 85.0469 250.719C84.6719 250.052 84.2552 249.208 83.7969 248.188C83.901 249 84 249.844 84.0938 250.719C84.1354 251.698 84.1562 252.359 84.1562 252.703V264H78.1406ZM111.969 264L102.375 241.125H109L113.578 253.922C113.578 253.922 113.594 253.995 113.625 254.141C113.667 254.276 113.734 254.521 113.828 254.875C113.953 255.417 114.125 256.12 114.344 256.984C114.479 256.359 114.641 255.734 114.828 255.109C114.964 254.495 115.068 254.099 115.141 253.922L119.688 241.125H126.312L116.719 264H111.969ZM128.172 264V241.125H142.188V246.141H134.25V250.109H141.734V255.016H134.25V258.875H142.188V264H128.172ZM146.328 264V241.125H152.844C154.104 241.125 155.167 241.151 156.031 241.203C156.906 241.255 157.625 241.344 158.188 241.469C159.156 241.698 160.021 242.094 160.781 242.656C161.615 243.281 162.245 244.083 162.672 245.062C163.12 246 163.344 247.062 163.344 248.25C163.344 250.01 162.906 251.453 162.031 252.578C161.177 253.703 159.911 254.438 158.234 254.781L164.469 264H157.422L152.172 255.047V264H146.328ZM152.172 251.938H153.328C154.693 251.938 155.677 251.714 156.281 251.266C156.896 250.766 157.203 250.042 157.203 249.094C157.203 247.948 156.917 247.135 156.344 246.656C155.76 246.167 154.786 245.922 153.422 245.922H152.172V251.938ZM167.875 256.609C168.833 257.672 169.75 258.458 170.625 258.969C171.542 259.49 172.438 259.75 173.312 259.75C174.135 259.75 174.818 259.526 175.359 259.078C175.901 258.63 176.172 258.062 176.172 257.375C176.172 256.625 175.948 256.036 175.5 255.609C175.021 255.203 173.964 254.781 172.328 254.344C170.099 253.74 168.521 252.958 167.594 252C166.656 251.021 166.188 249.688 166.188 248C166.188 245.812 166.922 244.031 168.391 242.656C169.839 241.271 171.734 240.578 174.078 240.578C175.401 240.578 176.599 240.75 177.672 241.094C178.797 241.438 179.865 241.948 180.875 242.625L178.922 247.109C178.234 246.516 177.505 246.057 176.734 245.734C175.984 245.432 175.25 245.281 174.531 245.281C173.802 245.281 173.193 245.464 172.703 245.828C172.234 246.172 172 246.63 172 247.203C172 247.755 172.203 248.214 172.609 248.578C173.036 248.922 173.839 249.25 175.016 249.562C175.057 249.573 175.094 249.583 175.125 249.594C175.156 249.594 175.203 249.604 175.266 249.625C177.807 250.302 179.484 251.062 180.297 251.906C180.828 252.438 181.245 253.109 181.547 253.922C181.818 254.693 181.953 255.568 181.953 256.547C181.953 258.964 181.156 260.917 179.562 262.406C177.958 263.875 175.833 264.609 173.188 264.609C171.562 264.609 170.109 264.344 168.828 263.812C167.557 263.281 166.302 262.427 165.062 261.25L167.875 256.609ZM185.609 264V241.125H191.906V264H185.609ZM220.438 252.609C220.438 254.266 220.141 255.812 219.547 257.25C218.953 258.656 218.068 259.938 216.891 261.094C215.724 262.219 214.391 263.083 212.891 263.688C211.318 264.302 209.76 264.609 208.219 264.609C206.656 264.609 205.099 264.302 203.547 263.688C202.016 263.073 200.693 262.208 199.578 261.094C198.453 260.021 197.568 258.729 196.922 257.219C196.297 255.74 195.984 254.203 195.984 252.609C195.984 251.016 196.297 249.479 196.922 248C197.568 246.49 198.453 245.198 199.578 244.125C200.724 242.979 202.047 242.104 203.547 241.5C205.005 240.906 206.562 240.609 208.219 240.609C209.875 240.609 211.443 240.911 212.922 241.516C214.401 242.109 215.719 242.979 216.875 244.125C218.042 245.271 218.932 246.562 219.547 248C220.141 249.438 220.438 250.974 220.438 252.609ZM208.219 259.328C209.938 259.328 211.375 258.688 212.531 257.406C213.104 256.771 213.526 256.057 213.797 255.266C214.068 254.474 214.203 253.589 214.203 252.609C214.203 250.703 213.635 249.104 212.5 247.812C211.344 246.531 209.917 245.891 208.219 245.891C206.479 245.891 205.047 246.531 203.922 247.812C202.797 249.094 202.234 250.693 202.234 252.609C202.234 254.599 202.786 256.208 203.891 257.438C205.026 258.698 206.469 259.328 208.219 259.328ZM224.359 264V241.125H230.375L239.016 252.891C239.234 253.214 239.51 253.698 239.844 254.344C240.271 255.177 240.688 256.036 241.094 256.922C240.938 255.724 240.849 254.885 240.828 254.406C240.766 253.656 240.734 252.995 240.734 252.422V241.125H246.719V264H240.734L232.094 252.188C231.969 252.021 231.693 251.531 231.266 250.719C230.891 250.052 230.474 249.208 230.016 248.188C230.12 249 230.219 249.844 230.312 250.719C230.354 251.698 230.375 252.359 230.375 252.703V264H224.359ZM264.969 264V246.531H259.844V241.125H276.328V246.531H271.203V264H264.969ZM302.875 252.609C302.875 254.266 302.578 255.812 301.984 257.25C301.391 258.656 300.505 259.938 299.328 261.094C298.161 262.219 296.828 263.083 295.328 263.688C293.755 264.302 292.198 264.609 290.656 264.609C289.094 264.609 287.536 264.302 285.984 263.688C284.453 263.073 283.13 262.208 282.016 261.094C280.891 260.021 280.005 258.729 279.359 257.219C278.734 255.74 278.422 254.203 278.422 252.609C278.422 251.016 278.734 249.479 279.359 248C280.005 246.49 280.891 245.198 282.016 244.125C283.161 242.979 284.484 242.104 285.984 241.5C287.443 240.906 289 240.609 290.656 240.609C292.312 240.609 293.88 240.911 295.359 241.516C296.839 242.109 298.156 242.979 299.312 244.125C300.479 245.271 301.37 246.562 301.984 248C302.578 249.438 302.875 250.974 302.875 252.609ZM290.656 259.328C292.375 259.328 293.812 258.688 294.969 257.406C295.542 256.771 295.964 256.057 296.234 255.266C296.505 254.474 296.641 253.589 296.641 252.609C296.641 250.703 296.073 249.104 294.938 247.812C293.781 246.531 292.354 245.891 290.656 245.891C288.917 245.891 287.484 246.531 286.359 247.812C285.234 249.094 284.672 250.693 284.672 252.609C284.672 254.599 285.224 256.208 286.328 257.438C287.464 258.698 288.906 259.328 290.656 259.328ZM330.281 252.609C330.281 254.266 329.984 255.812 329.391 257.25C328.797 258.656 327.911 259.938 326.734 261.094C325.568 262.219 324.234 263.083 322.734 263.688C321.161 264.302 319.604 264.609 318.062 264.609C316.5 264.609 314.943 264.302 313.391 263.688C311.859 263.073 310.536 262.208 309.422 261.094C308.297 260.021 307.411 258.729 306.766 257.219C306.141 255.74 305.828 254.203 305.828 252.609C305.828 251.016 306.141 249.479 306.766 248C307.411 246.49 308.297 245.198 309.422 244.125C310.568 242.979 311.891 242.104 313.391 241.5C314.849 240.906 316.406 240.609 318.062 240.609C319.719 240.609 321.286 240.911 322.766 241.516C324.245 242.109 325.562 242.979 326.719 244.125C327.885 245.271 328.776 246.562 329.391 248C329.984 249.438 330.281 250.974 330.281 252.609ZM318.062 259.328C319.781 259.328 321.219 258.688 322.375 257.406C322.948 256.771 323.37 256.057 323.641 255.266C323.911 254.474 324.047 253.589 324.047 252.609C324.047 250.703 323.479 249.104 322.344 247.812C321.188 246.531 319.76 245.891 318.062 245.891C316.323 245.891 314.891 246.531 313.766 247.812C312.641 249.094 312.078 250.693 312.078 252.609C312.078 254.599 312.63 256.208 313.734 257.438C314.87 258.698 316.312 259.328 318.062 259.328ZM334.203 264V241.125H340.438V258.656H348.188V264H334.203Z" fill="white"/>
</svg>
