<svg width="100" height="86" viewBox="0 0 100 86" fill="none" xmlns="http://www.w3.org/2000/svg">
<path fill-rule="evenodd" clip-rule="evenodd" d="M84.8929 4H8C5.79086 4 4 5.79086 4 8V63.0357C4 65.2449 5.79086 67.0357 8.00001 67.0357H53.0389C53.2222 68.4081 53.5186 69.7447 53.9186 71.0357H8.00001C3.58173 71.0357 0 67.454 0 63.0357V8C0 3.58173 3.58172 0 8 0H84.8929C89.3111 0 92.8929 3.58172 92.8929 8V44.6458C91.6536 43.6402 90.3145 42.7528 88.8929 42.0007V8C88.8929 5.79086 87.102 4 84.8929 4ZM55.1108 53.375L16.5713 53.375C15.4667 53.375 14.5713 54.2704 14.5713 55.375C14.5713 56.4796 15.4667 57.375 16.5713 57.375L53.6557 57.375C54.0266 55.9896 54.5154 54.6525 55.1108 53.375ZM47.3564 17.125C47.3564 16.0204 48.2519 15.125 49.3564 15.125L76.3207 15.125C77.4253 15.125 78.3207 16.0204 78.3207 17.125C78.3207 18.2296 77.4253 19.125 76.3207 19.125L49.3564 19.125C48.2519 19.125 47.3564 18.2296 47.3564 17.125ZM36.3599 22.0848H37.1112C38.2433 22.0848 39.1603 23.0018 39.1603 24.1339V26.8661C39.1603 27.9982 38.2433 28.9152 37.1112 28.9152H36.3599C36.0764 28.9143 35.8228 29.0919 35.7263 29.3583C35.6392 29.5777 35.5496 29.7912 35.4531 30.0029C35.3336 30.2608 35.3882 30.5656 35.5897 30.7653L36.1242 31.3007C36.9208 32.1015 36.9208 33.3959 36.1242 34.1967L34.1938 36.1272C33.3938 36.9238 32.1011 36.9255 31.2986 36.1306L30.7624 35.5953C30.5617 35.3938 30.2578 35.34 29.9999 35.4587C29.7882 35.5551 29.5747 35.6439 29.3562 35.7276C29.0906 35.8249 28.9139 36.0777 28.9148 36.3603V37.1116C28.9148 38.2437 27.9978 39.1607 26.8657 39.1607H24.1335C23.0022 39.1607 22.0844 38.2437 22.0844 37.1116V36.3603C22.0853 36.076 21.906 35.8224 21.6379 35.7267C21.4184 35.6397 21.205 35.55 20.9933 35.4535C20.7354 35.3349 20.4315 35.3895 20.2308 35.5901L19.6955 36.1246C18.8946 36.9212 17.6003 36.9212 16.7994 36.1246L14.869 34.1942C14.0732 33.3933 14.0732 32.0998 14.869 31.299L15.4043 30.7628C15.6058 30.563 15.6605 30.2582 15.5409 30.0003C15.4444 29.7886 15.3556 29.5752 15.272 29.3566C15.1746 29.0911 14.9219 28.9143 14.6393 28.9152H13.888C12.7558 28.9152 11.8389 27.9982 11.8389 26.8661V24.1339C11.8389 23.0018 12.7558 22.0848 13.888 22.0848H14.6393C14.9236 22.0874 15.1781 21.9115 15.2762 21.6443C15.3599 21.4248 15.4496 21.2114 15.546 20.9996C15.6656 20.7418 15.6109 20.437 15.4094 20.2372L14.875 19.7019C14.0784 18.901 14.0784 17.6067 14.875 16.8058L16.8054 14.8694C17.6063 14.0737 18.8997 14.0737 19.7006 14.8694L20.2368 15.4047C20.4374 15.6062 20.7414 15.6609 20.9992 15.5413C21.211 15.4449 21.4244 15.3561 21.643 15.2724C21.9085 15.1751 22.0853 14.9223 22.0844 14.6397V13.8884C22.0844 12.7563 23.0014 11.8393 24.1335 11.8393H26.8657C27.9978 11.8393 28.9148 12.7563 28.9148 13.8884V14.6397C28.9139 14.9232 29.0915 15.1768 29.3579 15.2732C29.5773 15.3603 29.7908 15.45 30.0025 15.5465C30.2603 15.6651 30.5643 15.6105 30.7649 15.4098L31.3003 14.8754C32.1011 14.0788 33.3955 14.0788 34.1963 14.8754L36.1268 16.8058C36.9234 17.6058 36.9251 18.8993 36.1302 19.701L35.5948 20.2372C35.3934 20.437 35.3387 20.7418 35.4582 20.9996C35.5547 21.2114 35.6435 21.4248 35.7272 21.6434C35.8245 21.9089 36.0772 22.0857 36.3599 22.0848ZM37.1112 27.5491C37.4886 27.5491 37.7942 27.2434 37.7942 26.8661V24.1331C37.7942 23.7557 37.4886 23.45 37.1112 23.45H36.3599C35.512 23.4466 34.7522 22.9224 34.4491 22.1301C34.3765 21.9405 34.2979 21.7518 34.2143 21.5666C33.8634 20.7913 34.0264 19.8795 34.6241 19.2741L35.1586 18.7388C35.4249 18.4724 35.4249 18.0395 35.1586 17.7732L33.2281 15.8427C32.96 15.578 32.5297 15.578 32.2616 15.8427L31.7272 16.3772C31.1218 16.9757 30.21 17.1388 29.4347 16.787C29.2494 16.7025 29.0608 16.6248 28.8695 16.5522C28.0763 16.2491 27.5521 15.4884 27.5487 14.6397V13.8884C27.5487 13.511 27.243 13.2054 26.8657 13.2054H24.1335C23.7561 13.2054 23.4505 13.511 23.4505 13.8884V14.6397C23.4462 15.4884 22.9203 16.2483 22.1271 16.5505C21.9375 16.6231 21.7489 16.7016 21.5636 16.7853C20.7883 17.1371 19.8765 16.974 19.2712 16.3755L18.7358 15.841C18.4694 15.5746 18.0366 15.5746 17.7702 15.841L15.8397 17.7714L15.8389 17.7723C15.5725 18.0387 15.5725 18.4716 15.8397 18.7379L16.3768 19.2724C16.9744 19.8778 17.1375 20.7896 16.7866 21.5649C16.7021 21.7501 16.6244 21.9388 16.5518 22.1301C16.2479 22.9232 15.488 23.4475 14.6393 23.4509H13.888C13.5106 23.4509 13.2049 23.7565 13.2049 24.1339V26.8661C13.2049 27.2434 13.5106 27.5491 13.888 27.5491H14.6393C15.488 27.5525 16.2479 28.0785 16.551 28.8725C16.6235 29.062 16.7021 29.2507 16.7858 29.436C17.1367 30.2112 16.9744 31.1231 16.3759 31.7284L15.8415 32.2638C15.5751 32.5301 15.5751 32.963 15.8415 33.2294L17.7719 35.1573L17.7727 35.1581C18.0391 35.4245 18.472 35.4245 18.7384 35.1573L19.2729 34.6228C19.8791 34.0251 20.7901 33.8621 21.5653 34.213C21.7514 34.2966 21.9393 34.3752 22.1305 34.4478C22.9237 34.7509 23.4479 35.5107 23.4513 36.3603V37.1116C23.4513 37.489 23.757 37.7946 24.1344 37.7946H26.8665C27.2439 37.7946 27.5495 37.489 27.5495 37.1116V36.3603C27.553 35.5124 28.0772 34.7526 28.8695 34.4495C29.0591 34.3769 29.2477 34.2983 29.433 34.2147C30.2083 33.8629 31.1201 34.026 31.7255 34.6245L32.2608 35.159C32.5272 35.4254 32.96 35.4254 33.2264 35.159L35.1569 33.2285L35.1577 33.2277C35.4241 32.9613 35.4241 32.5284 35.1569 32.262L34.6224 31.7276C34.0247 31.1222 33.8616 30.2104 34.2126 29.4351C34.2962 29.2499 34.3748 29.0612 34.4473 28.8699C34.7504 28.0767 35.5103 27.5525 36.3599 27.5491H37.1112ZM30.9535 25.2553C30.9475 25.1097 30.9369 24.9648 30.9194 24.8198C30.8997 24.6643 30.8769 24.5103 30.845 24.3593C30.828 24.2802 30.8065 24.2015 30.785 24.1225L30.785 24.1224L30.7691 24.0642C30.735 23.939 30.6971 23.8161 30.6546 23.6947C30.625 23.6105 30.5939 23.5263 30.562 23.4436C30.4838 23.2494 30.3943 23.0597 30.2941 22.8754C30.2901 22.8682 30.2867 22.8605 30.2833 22.8528L30.2833 22.8527L30.2832 22.8526C30.2811 22.8477 30.2789 22.8428 30.2765 22.8379L30.2736 22.8321C30.1158 22.5514 29.9329 22.2852 29.7273 22.0363C29.7224 22.0302 29.7173 22.0242 29.7121 22.0182C29.7061 22.0114 29.6999 22.0047 29.6938 21.998L29.6937 21.9979C29.686 21.9895 29.6784 21.9811 29.6711 21.9726C29.5876 21.874 29.5011 21.7776 29.4108 21.6858C29.3691 21.6421 29.325 21.6008 29.2807 21.5592L29.2636 21.5432C29.2029 21.487 29.1422 21.4309 29.0815 21.3778C29.0079 21.3141 28.9327 21.2518 28.8561 21.1919L28.7567 21.1176C27.818 20.415 26.6759 20.0349 25.502 20.0357C25.4673 20.0357 25.4326 20.0387 25.3979 20.0417C25.3719 20.0439 25.3459 20.0461 25.3199 20.0471C25.1909 20.0509 25.0604 20.0577 24.9298 20.0714L24.9168 20.0728C24.8526 20.0799 24.7874 20.0872 24.7234 20.0964C24.5254 20.1222 24.3288 20.1594 24.1353 20.2064C21.2123 20.9613 19.4548 23.9428 20.2106 26.8652C20.7084 28.7907 22.2132 30.2944 24.1399 30.7905C24.1474 30.7905 24.1549 30.7923 24.1628 30.7942L24.1628 30.7942L24.1702 30.7959C24.3797 30.8482 24.5921 30.8884 24.8061 30.9172C24.9217 30.9315 25.0378 30.9367 25.1539 30.9418L25.2311 30.9453C25.2696 30.9472 25.3068 30.9506 25.3441 30.9541C25.3987 30.9592 25.4533 30.9643 25.5119 30.9643C25.6849 30.9643 25.8647 30.9529 26.0476 30.9347C26.0596 30.9347 26.0712 30.9327 26.0835 30.9307C26.0914 30.9294 26.0996 30.928 26.1083 30.9271C26.2555 30.9104 26.405 30.8892 26.5576 30.8588C26.6002 30.8508 26.6406 30.841 26.6812 30.8311C26.6983 30.8269 26.7155 30.8227 26.7328 30.8186C26.8398 30.7936 26.9461 30.7678 27.0554 30.7352C27.1282 30.713 27.1994 30.6881 27.2704 30.6633L27.2704 30.6633L27.2706 30.6632L27.3058 30.6509C27.3893 30.6221 27.475 30.5903 27.5615 30.5576C27.625 30.5337 27.6807 30.5069 27.7368 30.4799L27.779 30.4597L27.7983 30.4507L27.8392 30.4318C27.9272 30.3912 28.0151 30.3508 28.1018 30.3035H28.1056C28.6725 30 29.1953 29.6222 29.6612 29.1799C29.7872 29.0623 29.8965 28.9288 29.9868 28.7816C30.4603 28.0222 30.7722 27.1732 30.9012 26.2871C30.9179 26.1703 30.9331 26.0527 30.9422 25.9336C30.9505 25.8236 30.9566 25.7143 30.9589 25.6051C30.9589 25.5875 30.96 25.5706 30.9612 25.5537L30.9619 25.542L30.963 25.5232C30.9632 25.5167 30.9634 25.5101 30.9634 25.5034C30.965 25.443 30.9614 25.3863 30.9578 25.3294C30.9562 25.3048 30.9547 25.2803 30.9535 25.2553ZM29.7387 25.7675L29.7364 25.8031C29.7257 25.9503 29.7068 26.0967 29.6817 26.2446C29.4548 27.5063 28.6709 28.5988 27.5486 29.2186C27.4735 29.258 27.3991 29.2952 27.3255 29.3294L27.2754 29.3536C26.9226 29.5137 26.5507 29.6268 26.1683 29.689C26.1417 29.6935 26.1144 29.6981 26.0871 29.7019C26.0112 29.7125 25.9368 29.7216 25.8625 29.7284C25.7646 29.7368 25.6667 29.7421 25.5665 29.7436H25.4398C25.2964 29.7421 25.1529 29.733 25.0103 29.717L24.9374 29.7087C24.7705 29.6867 24.605 29.6556 24.4411 29.6154C22.1676 29.0335 20.7964 26.7195 21.3777 24.4458C21.7624 22.9437 22.9348 21.7708 24.4366 21.3846V21.3839C24.7857 21.2959 25.1438 21.2511 25.5035 21.2503C25.6773 21.2511 25.8503 21.2632 26.0226 21.2852C26.0538 21.2888 26.0848 21.2938 26.1156 21.2987C26.1304 21.3011 26.1451 21.3035 26.1599 21.3057C26.2912 21.3262 26.421 21.3528 26.5492 21.3854L26.591 21.3958C26.6188 21.4027 26.6466 21.4097 26.6744 21.4172C26.9969 21.5106 27.3081 21.641 27.6002 21.8072C27.6362 21.8281 27.6713 21.8499 27.7062 21.8715L27.7383 21.8914C27.8339 21.9521 27.9273 22.0128 28.0191 22.0818L28.0192 22.0819C28.0685 22.1175 28.1178 22.1532 28.1656 22.1911C28.2847 22.2859 28.3985 22.3876 28.507 22.4945C28.5341 22.522 28.5596 22.551 28.5852 22.58C28.6005 22.5974 28.6158 22.6148 28.6315 22.6319C28.7013 22.7077 28.7696 22.7851 28.8341 22.867C28.8789 22.9232 28.9221 22.9816 28.9646 23.0408C29.0253 23.128 29.086 23.2191 29.1407 23.3116L29.1793 23.3751C29.1969 23.4039 29.2146 23.4329 29.2325 23.4626C29.3106 23.6067 29.3805 23.7554 29.4412 23.9072C29.4585 23.9505 29.4739 23.9938 29.4893 24.0371L29.4893 24.0372L29.5079 24.0893C29.5474 24.2008 29.5816 24.3138 29.6111 24.4276C29.6171 24.4514 29.6233 24.4741 29.6294 24.4966C29.6388 24.5313 29.6481 24.5654 29.6559 24.6014C29.6916 24.7652 29.7174 24.9314 29.7333 25.0983C29.7354 25.1227 29.7364 25.1476 29.7373 25.1724C29.7381 25.1923 29.7388 25.2122 29.7402 25.2318C29.747 25.3722 29.7493 25.5118 29.7439 25.6529C29.7439 25.691 29.7413 25.7295 29.7387 25.7675ZM42.9814 34.25C41.8769 34.25 40.9814 35.1454 40.9814 36.25C40.9814 37.3546 41.8769 38.25 42.9814 38.25L76.3207 38.25C77.4253 38.25 78.3207 37.3546 78.3207 36.25C78.3207 35.1454 77.4253 34.25 76.3207 34.25L42.9814 34.25Z" fill="#398DD8"/>
<path fill-rule="evenodd" clip-rule="evenodd" d="M77.999 86C90.1493 86 99.999 76.1503 99.999 64C99.999 51.8497 90.1493 42 77.999 42C65.8488 42 55.999 51.8497 55.999 64C55.999 76.1503 65.8488 86 77.999 86ZM74.9481 50H81.0333V56.1047H78.5302V60.6824H92V66.7871H90.373V71.0636H91.9904V75.3928H87.675V71.0636H89.2937V66.7871H82.7753V71.0636H84.3943V75.3928H80.079V71.0636H81.696V66.7871H75.1792V71.0636H76.7972V75.3928H72.4818V71.0636H74.1V66.7871H67.5826V71.0636H69.1912V75.3928H64.8758V71.0636H66.5034V66.7871H64V60.6824H77.4509V56.1047H74.9481V50Z" fill="#398DD8"/>
</svg>
