<svg width="100" height="86" viewBox="0 0 100 86" fill="none" xmlns="http://www.w3.org/2000/svg">
<path fill-rule="evenodd" clip-rule="evenodd" d="M8 4H84.8929C87.102 4 88.8929 5.79086 88.8929 8V42.0007C90.3145 42.7528 91.6536 43.6402 92.8929 44.6458V8C92.8929 3.58172 89.3111 0 84.8929 0H8C3.58172 0 0 3.58173 0 8V63.0357C0 67.454 3.58173 71.0357 8.00001 71.0357H53.9186C53.5186 69.7447 53.2222 68.4081 53.0389 67.0357H8.00001C5.79086 67.0357 4 65.2449 4 63.0357V8C4 5.79086 5.79086 4 8 4ZM32.4102 41.5357C31.3056 41.5357 30.4102 42.4311 30.4102 43.5357C30.4102 44.6403 31.3056 45.5357 32.4102 45.5357H52.0887C53.1933 45.5357 54.0887 44.6403 54.0887 43.5357C54.0887 42.4311 53.1933 41.5357 52.0887 41.5357H32.4102ZM17.2757 17.7329L30.0036 30.4608C30.7847 31.2418 30.7847 32.5082 30.0036 33.2892L17.2757 46.0171C16.4947 46.7982 15.2283 46.7982 14.4473 46.0171C13.6662 45.2361 13.6662 43.9698 14.4473 43.1887L25.761 31.875L14.4473 20.5613C13.6662 19.7802 13.6662 18.5139 14.4473 17.7329C15.2283 16.9518 16.4947 16.9518 17.2757 17.7329Z" fill="#398DD8"/>
<path fill-rule="evenodd" clip-rule="evenodd" d="M100 64C100 76.1503 90.1503 86 78 86C65.8497 86 56 76.1503 56 64C56 51.8497 65.8497 42 78 42C90.1503 42 100 51.8497 100 64ZM83.784 62.2511L88.8849 57.1503L90.8797 59.1542V50.92H82.6545L84.6493 52.9239L79.7398 57.8334V61.5407L80.4502 62.2511H83.784ZM66.9239 70.6493L71.8335 65.7398H75.5407L76.2512 66.4502V69.784L71.1503 74.8848L73.1542 76.8796H64.92V68.6545L66.9239 70.6493ZM68.2264 50L64 54.2264L70.7586 60.9941L68.7638 62.9889H76.9889V54.7638L74.9941 56.7586L68.2264 50ZM87.227 65.002L85.2323 66.9967L92 73.7645L87.7645 78L80.9967 71.2323L79.0019 73.2271V65.002H87.227Z" fill="#398DD8"/>
</svg>
