<?xml version="1.0" encoding="UTF-8"?>
<svg id="a" data-name="Warstwa 1" xmlns="http://www.w3.org/2000/svg" viewBox="0 0 400 200">
  <path d="m101.16,94.43c0,6.12,4.96,11.08,11.08,11.08s11.08-4.96,11.08-11.08c0-8.16-9.46-11.39-9.46-19.65,0-8.26,9.46-11.49,9.46-19.65,0-6.12-4.96-11.08-11.08-11.08-6.12,0-11.08,4.96-11.08,11.08,0,8.16,9.46,11.39,9.46,19.65s-9.46,11.49-9.46,19.65Z" fill="#2f4858"/>
  <path d="m160.09,94.43c0,6.12,4.96,11.08,11.08,11.08s11.08-4.96,11.08-11.08c0-8.16-9.46-11.39-9.46-19.65s9.46-11.49,9.46-19.65c0-6.12-4.96-11.08-11.08-11.08-6.12,0-11.08,4.96-11.08,11.08,0,8.16,9.46,11.39,9.46,19.65s-9.46,11.49-9.46,19.65Z" fill="#86bbd8"/>
  <path d="m130.63,74.33c0,6.12,4.96,11.08,11.08,11.08,6.12,0,11.08-4.96,11.08-11.08,0-8.16-9.46-11.39-9.46-19.65,0-8.26,9.46-11.49,9.46-19.65,0-6.12-4.96-11.08-11.08-11.08s-11.08,4.96-11.08,11.08c0,8.16,9.46,11.39,9.46,19.65,0,8.26-9.46,11.49-9.46,19.65Z" fill="#33658a"/>
  <circle cx="82.77" cy="74.78" r="10.52" fill="#2f4858"/>
  <path d="m219.03,94.43c0,6.12,4.96,11.08,11.08,11.08s11.08-4.96,11.08-11.08c0-8.16-9.46-11.39-9.46-19.65,0-8.26,9.46-11.49,9.46-19.65,0-6.12-4.96-11.08-11.08-11.08-6.12,0-11.08,4.96-11.08,11.08,0,8.16,9.46,11.39,9.46,19.65s-9.46,11.49-9.46,19.65Z" fill="#86bbd8"/>
  <path d="m277.96,94.43c0,6.12,4.96,11.08,11.08,11.08s11.08-4.96,11.08-11.08c0-8.16-9.46-11.39-9.46-19.65,0-8.26,9.46-11.49,9.46-19.65,0-6.12-4.96-11.08-11.08-11.08-6.12,0-11.08,4.96-11.08,11.08,0,8.16,9.46,11.39,9.46,19.65s-9.46,11.49-9.46,19.65Z" fill="#2f4858"/>
  <path d="m248.49,74.33c0,6.12,4.96,11.08,11.08,11.08,6.12,0,11.08-4.96,11.08-11.08,0-8.16-9.46-11.39-9.46-19.65s9.46-11.49,9.46-19.65c0-6.12-4.96-11.08-11.08-11.08s-11.08,4.96-11.08,11.08c0,8.16,9.46,11.39,9.46,19.65s-9.46,11.49-9.46,19.65Z" fill="#33658a"/>
  <circle cx="200.64" cy="74.78" r="10.52" fill="#f26419"/>
  <circle cx="318.51" cy="74.78" r="10.52" fill="#2f4858"/>
  <g>
    <path d="m79.77,164.41c-2.01-2.09-2.99-4.67-2.99-7.71s1.07-5.82,3.24-7.91c2.17-2.09,4.92-3.16,8.2-3.16,2.13,0,3.77.37,4.92,1.11v5.99c-1.11-.78-2.46-1.19-4.14-1.19-3.44,0-5.45,2.17-5.45,5s1.93,5.08,5.58,5.08c1.6,0,2.91-.33,4.02-.98v5.54c-1.27.9-3.07,1.35-5.45,1.35-3.24,0-5.9-1.03-7.91-3.12Z" fill="#2f4858"/>
    <path d="m99.28,165.68c-1.35-1.23-2.01-2.87-2.01-4.88,0-4.14,3.24-6.72,9.8-6.72h3.53v-.08c0-1.8-1.72-3.12-4.55-3.12-2.34,0-4.43.57-6.27,1.76v-5.25c1.89-1.19,4.31-1.76,7.22-1.76s5.49.7,7.38,2.13c1.89,1.44,2.83,3.69,2.83,6.81v12.46h-6.4l-.41-2.99c-.49.86-1.35,1.68-2.62,2.42-1.27.7-2.54,1.07-3.85,1.07-1.72,0-3.28-.62-4.63-1.84Zm10.05-4.59c.86-.94,1.27-1.97,1.27-3.16v-.12h-2.99c-2.25,0-3.4.78-3.4,2.34,0,1.48,1.11,2.3,2.38,2.3.98,0,1.89-.45,2.75-1.35Z" fill="#2f4858"/>
    <path d="m126.51,165.39c-1.39-1.44-2.09-3.28-2.09-5.54v-8.41h-3.9v-5.33h3.9v-3.65l6.64-3.24v6.89h5.99l-1.64,5.33h-4.35v6.89c0,2.17,1.11,3.28,3.28,3.28.78,0,1.44-.12,1.97-.41v5.41c-.94.62-2.34.9-4.18.9-2.34,0-4.18-.7-5.62-2.13Z" fill="#2f4858"/>
    <path d="m142.25,165.68c-1.35-1.23-2.01-2.87-2.01-4.88,0-4.14,3.24-6.72,9.8-6.72h3.53v-.08c0-1.8-1.72-3.12-4.55-3.12-2.34,0-4.43.57-6.27,1.76v-5.25c1.89-1.19,4.31-1.76,7.22-1.76s5.49.7,7.38,2.13c1.89,1.44,2.83,3.69,2.83,6.81v12.46h-6.4l-.41-2.99c-.49.86-1.35,1.68-2.62,2.42-1.27.7-2.54,1.07-3.85,1.07-1.72,0-3.28-.62-4.63-1.84Zm10.05-4.59c.86-.94,1.27-1.97,1.27-3.16v-.12h-2.99c-2.25,0-3.4.78-3.4,2.34,0,1.48,1.11,2.3,2.38,2.3.98,0,1.89-.45,2.75-1.35Z" fill="#2f4858"/>
    <path d="m165.83,167.03v-30.09h6.64v30.09h-6.64Z" fill="#2f4858"/>
    <path d="m180.71,176.05l3.9-9.31-8.57-20.62h7.38l4.72,12.63,4.51-12.63h7.05l-12.01,29.93h-6.97Z" fill="#2f4858"/>
    <path d="m202.15,166.17v-5.7c.86.53,1.93.98,3.28,1.31,1.35.33,2.54.49,3.61.49,1.93,0,2.91-.49,2.91-1.44s-1.52-1.56-3.44-2.05c-2.75-.62-6.44-1.89-6.35-6.03,0-2.01.78-3.73,2.34-5.08,1.6-1.35,3.81-2.05,6.72-2.05,2.46,0,4.47.29,6.07.9v5.78c-1.52-.82-4.14-1.44-5.82-1.44-1.8,0-2.71.45-2.71,1.39s1.52,1.56,3.44,2.05c2.75.62,6.44,2.01,6.36,6.15,0,4.22-3.57,7.05-9.64,7.05-2.79,0-5.04-.45-6.76-1.35Z" fill="#2f4858"/>
    <path d="m227.04,165.39c-1.39-1.44-2.09-3.28-2.09-5.54v-8.41h-3.89v-5.33h3.89v-3.65l6.64-3.24v6.89h5.99l-1.64,5.33h-4.35v6.89c0,2.17,1.11,3.28,3.28,3.28.78,0,1.44-.12,1.97-.41v5.41c-.94.62-2.34.9-4.18.9-2.34,0-4.18-.7-5.62-2.13Z" fill="#2f4858"/>
    <path d="m246.96,167.03l-7.3-20.91h7.26l3.98,13.45,3.85-13.45h5.95l3.85,13.45,3.98-13.45h6.89l-7.3,20.91h-6.68l-3.9-12.63-3.89,12.63h-6.68Z" fill="#2f4858"/>
    <path d="m279.07,165.68c-1.35-1.23-2.01-2.87-2.01-4.88,0-4.14,3.24-6.72,9.8-6.72h3.53v-.08c0-1.8-1.72-3.12-4.55-3.12-2.34,0-4.43.57-6.27,1.76v-5.25c1.89-1.19,4.31-1.76,7.22-1.76s5.49.7,7.38,2.13c1.89,1.44,2.83,3.69,2.83,6.81v12.46h-6.4l-.41-2.99c-.49.86-1.35,1.68-2.62,2.42-1.27.7-2.54,1.07-3.85,1.07-1.72,0-3.28-.62-4.63-1.84Zm10.04-4.59c.86-.94,1.27-1.97,1.27-3.16v-.12h-2.99c-2.25,0-3.4.78-3.4,2.34,0,1.48,1.11,2.3,2.38,2.3.98,0,1.89-.45,2.75-1.35Z" fill="#2f4858"/>
    <path d="m302.64,167.03v-20.91h6.23l.41,2.99c1.19-1.93,3.89-3.49,6.72-3.49,4.26,0,7.22,3.4,7.22,9.1v12.3h-6.64v-11.4c0-2.5-1.15-4.1-3.28-4.1-2.34,0-4.02,1.84-4.02,4.3v11.19h-6.64Z" fill="#2f4858"/>
  </g>
</svg>