<?xml version="1.0" encoding="UTF-8"?>
<svg id="a" data-name="Warstwa 1" xmlns="http://www.w3.org/2000/svg" viewBox="0 0 400 200">
  <defs>
    <style>
      .b {
        fill: #f26419;
      }

      .c {
        fill: #2f4858;
      }

      .d {
        fill: #33658a;
      }

      .e {
        fill: #86bbd8;
      }
    </style>
  </defs>
  <path class="c" d="m101.16,94.43c0,6.12,4.96,11.08,11.08,11.08s11.08-4.96,11.08-11.08c0-8.16-9.46-11.39-9.46-19.65,0-8.26,9.46-11.49,9.46-19.65,0-6.12-4.96-11.08-11.08-11.08-6.12,0-11.08,4.96-11.08,11.08,0,8.16,9.46,11.39,9.46,19.65s-9.46,11.49-9.46,19.65Z"/>
  <path class="e" d="m160.09,94.43c0,6.12,4.96,11.08,11.08,11.08s11.08-4.96,11.08-11.08c0-8.16-9.46-11.39-9.46-19.65s9.46-11.49,9.46-19.65c0-6.12-4.96-11.08-11.08-11.08-6.12,0-11.08,4.96-11.08,11.08,0,8.16,9.46,11.39,9.46,19.65s-9.46,11.49-9.46,19.65Z"/>
  <path class="d" d="m130.63,74.33c0,6.12,4.96,11.08,11.08,11.08,6.12,0,11.08-4.96,11.08-11.08,0-8.16-9.46-11.39-9.46-19.65,0-8.26,9.46-11.49,9.46-19.65,0-6.12-4.96-11.08-11.08-11.08s-11.08,4.96-11.08,11.08c0,8.16,9.46,11.39,9.46,19.65,0,8.26-9.46,11.49-9.46,19.65Z"/>
  <circle class="c" cx="82.77" cy="74.78" r="10.52"/>
  <path class="e" d="m219.03,94.43c0,6.12,4.96,11.08,11.08,11.08s11.08-4.96,11.08-11.08c0-8.16-9.46-11.39-9.46-19.65,0-8.26,9.46-11.49,9.46-19.65,0-6.12-4.96-11.08-11.08-11.08-6.12,0-11.08,4.96-11.08,11.08,0,8.16,9.46,11.39,9.46,19.65s-9.46,11.49-9.46,19.65Z"/>
  <path class="c" d="m277.96,94.43c0,6.12,4.96,11.08,11.08,11.08s11.08-4.96,11.08-11.08c0-8.16-9.46-11.39-9.46-19.65,0-8.26,9.46-11.49,9.46-19.65,0-6.12-4.96-11.08-11.08-11.08-6.12,0-11.08,4.96-11.08,11.08,0,8.16,9.46,11.39,9.46,19.65s-9.46,11.49-9.46,19.65Z"/>
  <path class="d" d="m248.49,74.33c0,6.12,4.96,11.08,11.08,11.08,6.12,0,11.08-4.96,11.08-11.08,0-8.16-9.46-11.39-9.46-19.65s9.46-11.49,9.46-19.65c0-6.12-4.96-11.08-11.08-11.08s-11.08,4.96-11.08,11.08c0,8.16,9.46,11.39,9.46,19.65s-9.46,11.49-9.46,19.65Z"/>
  <circle class="b" cx="200.64" cy="74.78" r="10.52"/>
  <circle class="c" cx="318.51" cy="74.78" r="10.52"/>
  <g>
    <path class="c" d="m46.1,166.46l-8.19-21.08h7.48l4.46,13.52,4.46-13.52h7.11l-8.19,21.08h-7.15Z"/>
    <path class="c" d="m65.23,166.46v-28.03h7.77l7.61,13.39,7.61-13.39h7.44v28.03h-6.49v-19.06l-7.61,13.39h-2.23l-7.61-13.39v19.06h-6.49Z"/>
    <path class="c" d="m102.69,165.1c-1.36-1.24-2.03-2.89-2.03-4.92,0-4.18,3.27-6.78,9.88-6.78h3.56v-.08c0-1.82-1.74-3.14-4.59-3.14-2.36,0-4.46.58-6.33,1.78v-5.29c1.9-1.2,4.34-1.78,7.28-1.78s5.54.7,7.44,2.15,2.85,3.72,2.85,6.86v12.57h-6.45l-.41-3.02c-.5.87-1.36,1.7-2.65,2.44-1.28.7-2.56,1.08-3.89,1.08-1.74,0-3.31-.62-4.67-1.86Zm10.13-4.63c.87-.95,1.28-1.98,1.28-3.18v-.12h-3.02c-2.27,0-3.43.78-3.43,2.36,0,1.49,1.12,2.32,2.4,2.32.99,0,1.9-.46,2.77-1.36Z"/>
    <path class="c" d="m126.46,166.46v-21.08h6.28l.41,3.02c1.2-1.94,3.93-3.51,6.78-3.51,4.3,0,7.28,3.43,7.28,9.18v12.4h-6.7v-11.49c0-2.52-1.16-4.13-3.31-4.13-2.36,0-4.05,1.86-4.05,4.34v11.29h-6.7Z"/>
    <path class="c" d="m153.95,165.1c-1.36-1.24-2.03-2.89-2.03-4.92,0-4.18,3.27-6.78,9.88-6.78h3.56v-.08c0-1.82-1.74-3.14-4.59-3.14-2.36,0-4.46.58-6.33,1.78v-5.29c1.9-1.2,4.34-1.78,7.28-1.78s5.54.7,7.44,2.15,2.85,3.72,2.85,6.86v12.57h-6.45l-.41-3.02c-.5.87-1.36,1.7-2.65,2.44-1.28.7-2.56,1.08-3.89,1.08-1.74,0-3.31-.62-4.67-1.86Zm10.13-4.63c.87-.95,1.28-1.98,1.28-3.18v-.12h-3.02c-2.27,0-3.43.78-3.43,2.36,0,1.49,1.12,2.32,2.4,2.32.99,0,1.9-.46,2.77-1.36Z"/>
    <path class="c" d="m179.62,174.69v-6.2c1.7,1.07,3.84,1.61,6.41,1.61,4.42,0,6.82-2.23,6.82-5.58v-1.94c-1.03,1.78-3.6,3.6-6.7,3.6-2.52,0-4.71-1.03-6.57-3.06-1.86-2.07-2.77-4.55-2.77-7.44,0-3.06.99-5.62,3.02-7.69,2.03-2.07,4.34-3.1,6.95-3.1,2.94,0,5.09,1.61,6.08,3.39l.41-2.89h6.28v19.02c0,3.35-1.2,6.12-3.56,8.31-2.36,2.23-5.71,3.35-10.09,3.35-2.4,0-4.51-.45-6.28-1.36Zm13.48-19.14c0-2.52-1.86-4.71-4.63-4.71-1.41,0-2.56.46-3.47,1.41-.91.95-1.36,2.03-1.36,3.31,0,2.48,2.03,4.67,4.84,4.67s4.63-2.19,4.63-4.67Z"/>
    <path class="c" d="m207.56,163.9c-2.11-2.03-3.14-4.63-3.14-7.77s1.03-5.87,3.06-8.02c2.07-2.15,4.71-3.22,7.94-3.22s5.79,1.08,7.61,3.22c1.82,2.11,2.73,4.63,2.73,7.48,0,.87-.12,1.65-.33,2.31h-13.93c.54,2.52,2.69,3.76,6.45,3.76,2.44,0,4.38-.37,5.75-1.16v5c-1.94.95-4.22,1.45-6.9,1.45-4.05,0-7.11-1.03-9.22-3.06Zm11.37-9.76c0-2.19-1.41-4.01-3.68-4.01-2.03,0-3.6,1.49-3.93,4.01h7.61Z"/>
    <path class="c" d="m230.71,158.57v-5.58h13.73v5.58h-13.73Z"/>
    <path class="c" d="m252.42,163.82c-2.03-2.11-3.02-4.71-3.02-7.77s1.08-5.87,3.27-7.98c2.19-2.11,4.96-3.18,8.27-3.18,2.15,0,3.8.37,4.96,1.12v6.04c-1.12-.78-2.48-1.2-4.18-1.2-3.47,0-5.5,2.19-5.5,5.04s1.94,5.13,5.62,5.13c1.61,0,2.93-.33,4.05-.99v5.58c-1.28.91-3.1,1.36-5.5,1.36-3.27,0-5.95-1.03-7.98-3.14Z"/>
    <path class="c" d="m271.06,166.46v-30.34h6.7v30.34h-6.7Z"/>
    <path class="c" d="m284.12,141.53c-.74-.7-1.12-1.61-1.12-2.69s.37-1.94,1.12-2.65c1.49-1.45,4.05-1.45,5.54,0,.74.7,1.12,1.57,1.12,2.65s-.37,1.98-1.12,2.69c-1.49,1.36-4.05,1.36-5.54,0Zm-.58,24.93v-21.08h6.7v21.08h-6.7Z"/>
    <path class="c" d="m298.26,163.9c-2.11-2.03-3.14-4.63-3.14-7.77s1.03-5.87,3.06-8.02c2.07-2.15,4.71-3.22,7.94-3.22s5.79,1.08,7.61,3.22c1.82,2.11,2.73,4.63,2.73,7.48,0,.87-.12,1.65-.33,2.31h-13.93c.54,2.52,2.69,3.76,6.45,3.76,2.44,0,4.38-.37,5.75-1.16v5c-1.94.95-4.22,1.45-6.9,1.45-4.05,0-7.11-1.03-9.22-3.06Zm11.37-9.76c0-2.19-1.41-4.01-3.68-4.01-2.03,0-3.6,1.49-3.93,4.01h7.61Z"/>
    <path class="c" d="m321.33,166.46v-21.08h6.28l.41,3.02c1.2-1.94,3.93-3.51,6.78-3.51,4.3,0,7.28,3.43,7.28,9.18v12.4h-6.7v-11.49c0-2.52-1.16-4.13-3.31-4.13-2.36,0-4.05,1.86-4.05,4.34v11.29h-6.7Z"/>
    <path class="c" d="m351.47,164.81c-1.41-1.45-2.11-3.31-2.11-5.58v-8.48h-3.93v-5.37h3.93v-3.68l6.7-3.27v6.95h6.04l-1.65,5.37h-4.38v6.95c0,2.19,1.12,3.31,3.31,3.31.79,0,1.45-.12,1.98-.41v5.46c-.95.62-2.36.91-4.22.91-2.36,0-4.22-.7-5.66-2.15Z"/>
  </g>
</svg>